<svg xmlns="http://www.w3.org/2000/svg" shape-rendering="geometricPrecision" text-rendering="geometricPrecision" viewBox="0 0 7680 2160">
  <defs>
    <linearGradient id="a" x1="1" x2=".6" y1="0" y2=".4" gradientUnits="objectBoundingBox" spreadMethod="pad">
      <stop offset="18%" stop-color="#0052cc"/>
      <stop offset="100%" stop-color="#2684ff"/>
    </linearGradient>
    <linearGradient id="b" x1="1" x2=".6" y1="0" y2=".4" gradientUnits="objectBoundingBox" spreadMethod="pad">
      <stop offset="18%" stop-color="#0052cc"/>
      <stop offset="100%" stop-color="#2684ff"/>
    </linearGradient>
    <linearGradient id="c" x1="243.3" x2="83.1" y1="261.6" y2="169.5" gradientUnits="userSpaceOnUse" spreadMethod="pad">
      <stop offset="0%" stop-color="#0052cc"/>
      <stop offset="92%" stop-color="#2380fb"/>
      <stop offset="100%" stop-color="#2684ff"/>
    </linearGradient>
    <linearGradient id="d" x1="12.6" x2="172.9" y1="-15.5" y2="76.6" gradientUnits="userSpaceOnUse" spreadMethod="pad">
      <stop offset="0%" stop-color="#0052cc"/>
      <stop offset="92%" stop-color="#2380fb"/>
      <stop offset="100%" stop-color="#2684ff"/>
    </linearGradient>
    <linearGradient id="e" x1="16.8" x2="15" y1="15.4" y2="9.6" gradientUnits="userSpaceOnUse" spreadMethod="pad">
      <stop offset="0%" stop-color="#512"/>
      <stop offset="23%" stop-color="#523"/>
      <stop offset="36%" stop-color="#534"/>
      <stop offset="51%" stop-color="#645"/>
      <stop offset="66%" stop-color="#568"/>
      <stop offset="84%" stop-color="#29d"/>
    </linearGradient>
    <linearGradient id="f" x1="29.7" x2="11.7" y1="19" y2="14.6" gradientUnits="userSpaceOnUse" spreadMethod="pad">
      <stop offset="8.1%" stop-color="#c33"/>
      <stop offset="18.9%" stop-color="#de5239"/>
      <stop offset="31.3%" stop-color="#f06e3e"/>
      <stop offset="42.1%" stop-color="#fa8042"/>
      <stop offset="50%" stop-color="#fe8643"/>
      <stop offset="58%" stop-color="#fa7f42"/>
      <stop offset="69.6%" stop-color="#ef6c3e"/>
      <stop offset="83.3%" stop-color="#dc4c37"/>
      <stop offset="91.6%" stop-color="#cf3633"/>
    </linearGradient>
    <linearGradient id="g" x1=".1" x2=".8" y1=".1" y2=".8" gradientUnits="objectBoundingBox" spreadMethod="pad">
      <stop offset="0%" stop-color="#387eb8"/>
      <stop offset="100%" stop-color="#366994"/>
    </linearGradient>
    <linearGradient id="h" x1=".2" x2=".9" y1=".2" y2=".9" gradientUnits="objectBoundingBox" spreadMethod="pad">
      <stop offset="0%" stop-color="#ffe052"/>
      <stop offset="100%" stop-color="#ffc331"/>
    </linearGradient>
  </defs>
  <g opacity=".6" class="glow1">
    <path fill="#a179dc" d="m3843 1808-1-5-5-4-46-27c-4-2-8-2-12 0l-45 27c-4 2-6 5-6 9v54l1 5 5 4 45 27c4 2 8 2 12 0l46-27 5-4 1-5v-54"/>
    <path fill="#280068" d="m3786 1835-57 32 5 4 45 27c4 2 8 2 12 0l46-27 5-4-56-32Z"/>
    <path fill="#390091" d="m3843 1808-1-5-56 32 56 32 1-5v-54"/>
    <g fill="#fff" class="glow7">
      <path d="M3819 1823v6h6v-6h3v6h6v3h-6v6h6v3h-6v6h-3v-6h-6v6h-3v-6h-6v-3h6v-6h-6v-3h6v-6h3Zm6 9h-6v6h6v-6Z"/>
      <path d="M3786 1792c16 0 29 9 37 22v-1l-19 11a21 21 0 1 0 0 21v1l19 10c-7 13-21 22-37 22a43 43 0 1 1 0-86Z"/>
    </g>
  </g>
  <g opacity=".6" class="glow2">
    <path fill="#004482" d="M6041 1227c1-2 0-4-1-6l-4-4-48-28c-4-2-9-2-13 1l-47 27c-4 2-6 6-6 10v56l1 6 5 4 47 27c4 3 9 3 13 0l48-27 4-4c1-2 2-4 1-6v-56Z"/>
    <path fill="#00599c" d="M6041 1283a12 12 0 0 1-2 7l-57-35 54-38 4 4a130956 130956 0 0 1 1 61Z"/>
    <path fill="#659ad2" d="m6040 1221-117 68-1-6v-56c0-4 2-8 6-10l47-27c4-3 9-3 13-1l48 28 4 4Z"/>
    <path fill="#fff" d="M5984 1277c-8 0-15-4-19-11l-1-1a22 22 0 0 1 37-24l1 2 19-11-1-2-1-1a44 44 0 0 0-74 47l1 1a44 44 0 0 0 75 2l-19-12c-4 7-11 10-18 10Z"/>
  </g>
  <g opacity=".6" class="glow3">
    <path fill="#5c8dbc" d="m1281 1546-1-5-4-4-46-27c-4-2-8-2-12 0l-46 27c-4 2-6 5-6 9v54l2 5 4 4 46 27c4 2 8 2 12 0l46-27 4-4 1-5v-54"/>
    <path fill="#1a4674" d="m1224 1573-56 32 4 4 46 27c4 2 8 2 12 0l46-27 4-4-56-32"/>
    <path fill="#1a4674" d="M1207 1582a19 19 0 0 0 34 0l-17-9-17 9"/>
    <path fill="#1b598e" d="m1281 1546-1-5-56 32 56 32 1-5v-54"/>
    <path fill="#fff" d="M1278 1575h-4v5h-4v-5h-5v-4h5v-5h4v5h4v4m-16 0h-4v5h-4v-5h-5v-4h5v-5h4v5h4v4"/>
    <path fill="#fff" d="M1241 1582a19 19 0 1 1-1-18l17-10a38 38 0 1 0 0 38l-16-10"/>
  </g>
  <g opacity=".6" class="glow4">
    <path fill="#1b73ba" d="m2845 1760-8-112h99l-8 112-41 13-42-13Z"/>
    <path fill="#1c88c7" d="M2887 1762v-103h41l-7 92-34 11Z"/>
    <path fill="#fff" d="M2918 1672h-63l2 14h30l-30 13 2 13h43l-1 19-15 3-13-4-1-10h-13l2 21 26 8 25-9 3-42h-26l29-13v-13Z"/>
  </g>
  <g opacity=".6" class="glow5">
    <path fill="#ff8080" d="M1565 656v11l-27-27 9-9 13 14v3c0 4 2 7 5 8Zm8 2 4 4-4 4v-8Zm26-18-16 17-6-6 1-4a9 9 0 0 0-12-7l-14-14 12-12a7 7 0 0 1 9 0l26 26Z"/>
    <path fill="#80b3ff" d="m1560 678-25 24-25-24c-2-3-2-7 1-10l25-26 24 24c3 3 3 9 0 12Z"/>
    <path fill="#ffe680" d="M1573 681v10a9 9 0 0 1-2 16 9 9 0 0 1-6-16v-12a1 1 0 0 0-2 0l-25 26 26 26c3 3 7 3 10 0l25-25-26-25Z"/>
    <path fill="#8dd35f" d="m1626 680-24 23-26-25c-3-3-3-8 0-11l3-3 7 6a9 9 0 1 0 5-5l-6-6 16-17 25 25a9 9 0 0 1 0 13Z"/>
  </g>
  <g opacity=".6" class="glow6">
    <path fill="#e24329" d="M2119 1804a32 32 0 0 1-13 26l-26 20-13 9-7 6a5 5 0 0 1-5 1l-2-1-8-6-12-9-26-20a31 31 0 0 1-11-36v-1l17-44 1-1 1-1 1-1a4 4 0 0 1 3 1h1l1 1 1 1v1l11 35h47l11-35v-1l1-1 1-1h1a5 5 0 0 1 2-1l2 1 1 1v1l17 44 1 1 2 10Z"/>
    <path fill="#fc6d26" d="M2119 1804a32 32 0 0 1-13 26l-26 20-24-18 38-28a56 56 0 0 1 22-11l1 1 2 10Z"/>
    <path fill="#fca326" d="m2056 1832 24 18-13 9-7 6a5 5 0 0 1-5 1l-2-1-8-6-12-9 23-18Z"/>
    <path fill="#fc6d26" d="m2056 1832-23 18-26-20a31 31 0 0 1-11-36v-1a58 58 0 0 1 23 11l37 28Z"/>
  </g>
  <g opacity=".6" class="glow7">
    <path d="m5118 1191 2-2 1-1h26l1 1-2 2h-28Zm-11 7 1-2 1-1h34l1 1-1 1v1h-36Zm18 7v-1l1-1 1-1h15v3h-17Zm78-15-13 3-2-1-3-3c-5-2-10-1-14 2-5 3-8 8-7 14 0 6 4 11 10 12 5 0 9-2 12-5l2-3h-14c-2 0-2-1-1-2l3-9 2-1h28l-1 6c-1 6-3 11-6 15-5 7-12 12-21 13-8 1-15-1-21-5-5-4-8-10-9-17-1-8 1-15 6-22 6-7 13-11 21-13 7-1 14 0 20 4 4 2 7 6 9 10l-1 2Z"/>
    <path d="M5228 1231c-7 0-13-2-18-6s-8-9-8-15c-2-8 0-16 6-23 5-7 12-10 21-12 7-1 14-1 21 4 6 4 10 9 11 16 1 11-2 19-9 26-5 5-11 8-18 10h-6Zm18-30v-3c-2-7-9-11-16-10-7 2-11 6-13 13-1 6 2 12 7 15 4 1 8 1 12-1 6-3 9-8 10-14Z"/>
  </g>
  <g opacity=".6" class="glow8">
    <path fill="#e34f26" d="m4680 1783-8-102 99 1-9 101-41 12-41-12Z"/>
    <path fill="#ef652a" d="M4721 1785v-94h41l-7 84-34 10Z"/>
    <path fill="#fff" d="m4751 1714 1-12h-63l4 38h43l-1 16-14 4-14-4-1-10h-13l2 20 26 7 25-7 4-39h-46l-1-13h48Z"/>
  </g>
  <g opacity=".6" class="glow9">
    <path fill="#e76f00" d="M6327 1851h-1v-1h2v3h-1v-2Zm4 0v2h-1l-1-2v2-3h1v2l1-2h1v3h-1v-2Z"/>
    <path fill="#5382a1" d="M6254 1795s-6 3 4 4c12 2 18 2 31-1l8 4c-29 13-66-1-43-7m-3-16s-7 5 3 6c12 1 22 1 40-2l6 3c-35 11-75 1-49-7"/>
    <path fill="#e76f00" d="M6280 1751c8 9-1 16-1 16s18-9 9-21c-7-11-13-17 19-35 0 0-51 12-27 40"/>
    <path fill="#5382a1" d="M6319 1807s4 4-5 6c-16 5-70 7-84 0-6-2 4-5 8-6h5c-6-4-38 8-17 11 60 10 108-4 93-11m-62-45s-27 6-10 9c8 1 22 0 36-1l22-3-6 4c-28 7-81 4-66-3 13-7 24-6 24-6m48 27c28-14 15-28 6-26h-3l2-1c18-7 32 18-5 28v-1"/>
    <path fill="#e76f00" d="M6288 1680s16 16-14 39c-24 19-6 30 0 43-14-13-25-24-18-35 11-15 39-22 32-47"/>
    <path fill="#5382a1" d="M6260 1828c26 2 67-1 68-13 0 0-2 4-22 8-23 5-51 4-67 1 0 0 3 3 21 4"/>
    <path fill="#e76f00" d="M6255 1877c-2 2-5 3-7 3-4 0-6-2-6-5 0-4 2-6 10-6h3v8m7 7v-24c0-6-3-10-12-10-5 0-9 1-13 3l1 4 10-2c5 0 7 2 7 6v3h-2c-12 0-18 5-18 12 0 6 4 9 11 9 4 0 7-2 10-4l1 3h5Zm23 0h-8l-11-34h8l6 21 2 7 7-28h7c-2 12-6 24-11 34m34-7-8 3c-3 0-5-2-5-5 0-4 2-6 10-6h3v8m7 7v-24c0-6-4-10-12-10-5 0-10 1-13 3l1 4 10-2c5 0 7 2 7 6v3h-3c-12 0-17 5-17 12 0 6 3 9 10 9 4 0 8-2 11-4v3h6Zm-98 6c-2 3-5 5-9 7l-3-4 6-6 1-10v-39h7v39c0 7 0 10-2 13"/>
  </g>
  <g opacity=".6" class="glow10">
    <path fill="#99425b" d="M3509 1197a13 13 0 0 0-15-13l19-53h-77l18 53a13 13 0 0 0-5 26 57 57 0 0 1-29 24c-8-4-11-13-8-21l1-3a13 13 0 1 0-10-2c-4 7-8 15-10 24-2 11 0 22 9 29 22 15 46-10 70-16 9-2 19-2 27-6 6-4 10-9 11-16 1-6 0-12-4-18 2-2 3-5 3-8"/>
    <path fill="#fff" d="M3507 1223c-1 5-4 10-9 13s-11 4-17 4l-9 2c-9 2-17 6-25 10-16 8-30 15-43 6-9-7-9-19-8-25 1-7 4-12 7-18l1-3 4 1c-2 9 2 19 11 24l1 1 1-1c8-2 14-7 20-12l10-12a16 16 0 0 0 18-14h11a16 16 0 0 0 25 11c2 4 3 8 2 13Zm-97-36a10 10 0 1 1 0 20 10 10 0 0 1 0-20Zm33 10a10 10 0 1 1 20 0 10 10 0 0 1-20 0Zm42-12c-3 2-4 5-5 8h-11l-5-8 10-21 11 21Zm-45-51h68l-16 47-2 1-16-32-16 32-2-1-16-47Zm66 63a10 10 0 1 1-20 0 10 10 0 0 1 20 0Zm6 0c0-8-6-15-13-16l18-53h-86l19 53a16 16 0 0 0-6 30 55 55 0 0 1-23 19c-6-3-9-10-6-16v-1h1a16 16 0 1 0-17-4l-2 3c-3 6-6 12-7 20-2 14 1 25 11 31 5 4 11 6 17 6 10 0 21-6 32-11 7-4 15-8 23-10l9-1c7-1 13-2 19-5a26 26 0 0 0 9-36l2-9Z"/>
  </g>
  <g opacity=".6" class="glow1">
    <path fill="#2684ff" d="M2442 382h-61a28 28 0 0 0 28 28h11v11c0 15 13 27 28 27v-61c0-3-3-5-6-5Z"/>
    <path fill="url(#a)" d="M184 61H61c0 31 25 56 55 56h23v22c0 30 25 55 55 55V72c0-6-4-11-10-11Z" transform="matrix(.5 0 0 .5 2320 382)"/>
    <path fill="url(#b)" d="M123 122H0c0 31 25 56 56 56h22v22c0 30 25 55 56 55V133c0-6-5-11-11-11Z" transform="matrix(.5 0 0 .5 2320 382)"/>
  </g>
  <g opacity=".6" class="glow2">
    <path fill="#f0db4f" d="M2381 1024h126v126h-126v-126Z"/>
    <path fill="#323330" d="M2497 1120c-1-5-5-10-16-15-4-2-8-3-9-6l-1-3c1-4 5-5 8-4 2 1 4 2 6 5l9-6-3-4c-4-4-8-6-15-6l-4 1-9 5c-6 7-4 19 3 24s18 6 19 11c2 7-4 9-10 8-4-1-7-3-9-7l-10 5 4 6c10 9 32 9 37-5v-9Zm-47-38h-12v31l-1 14c-2 4-6 3-8 2l-5-4v-1l-10 6 7 8c5 2 11 3 17 2 4-1 8-4 10-8 2-5 2-11 2-17v-33Z"/>
  </g>
  <g fill-rule="evenodd" clip-rule="evenodd" opacity=".6" class="glow3">
    <path fill="#e0eaf5" d="M4279 1041h41c9 0 11 3 9 11l-16 71c-1 8-5 11-13 11h-83c-9 0-11-3-9-12l16-70c2-9 5-11 14-11h41Z"/>
    <path fill="#2671be" d="M4258 1131h-41c-7 0-9-2-7-9l16-69c2-7 5-9 11-9h83c7 0 8 1 7 8l-16 69c-2 8-4 10-13 10h-40Z"/>
    <path fill="#fdfdfe" d="m4270 1085-3-3-18-20c-3-4-4-7-1-10 4-3 7-2 10 1l26 29c3 3 2 6-1 8l-41 30c-4 3-6 3-9 0-3-4 0-6 3-8l30-22c2-1 4-2 4-5Z"/>
    <path fill="#fcfdfd" d="M4274 1121h-11c-3 0-5-2-5-5s2-5 5-5h24c3 0 5 2 5 4 0 4-2 6-5 6h-13Z"/>
  </g>
  <g opacity=".6" class="glow4">
    <path fill="#007acc" d="M3976 406v-60h120v120h-120"/>
    <path fill="#fff" d="M4003 406v5h15v45h11v-45h16v-10h-42v5Zm70-5c3 1 5 2 7 5l3 3-8 6-1-1-6-3c-4-1-6 1-6 4v3l7 4c9 4 13 6 15 10 3 4 3 10 1 14-2 6-6 9-13 10h-9c-5-1-9-3-12-6l-3-5 1-1 4-2 4-2v1l5 4c4 2 9 2 12-1l1-3-1-3c-1-2-3-3-8-5-6-3-9-4-11-7-2-1-3-4-4-6v-8c2-6 6-10 13-11h9Z"/>
  </g>
  <g opacity=".6" class="glow5">
    <path fill="#e23237" d="m184 1084 63-22 65 22-11 83-54 30-53-30-10-83Z"/>
    <path fill="#b52e31" d="m312 1084-65-22v135l54-30 11-83Z"/>
    <path fill="#fff" d="m247 1077-39 88 15-1 8-19h35l8 20h14l-41-88Zm0 28 14 28h-25l11-28Z"/>
  </g>
  <g opacity=".6" class="glow9">
    <path fill="#172b4d" d="M1653 1218c2 2 6 3 13 3l8-1v-1l4-13a1 1 0 0 0 0-1 44 44 0 0 1-16-13 1 1 0 0 0-1 1 107 107 0 0 1-8 24v1Zm27 24v-1c-3-4-4-9-5-13a1 1 0 0 0-1-1 44 44 0 0 1-20-1 1 1 0 1 0-1 1 107 107 0 0 1 8 25l1 1c2-1 6-2 11-6l7-5Zm36-73-1-1-32-6a2 2 0 0 0-2 2l5 7a110 110 0 0 1-20 14c1 3 4 6 9 10a35 35 0 0 0 7 4h1c3-4 7-7 12-9l1 8a2 2 0 0 0 3 1l17-28v-2Zm-19 86c-5-1-9-4-12-7a1 1 0 0 0-1 0 44 44 0 0 1-17 11 1 1 0 0 0 0 1 108 108 0 0 1 21 16h1l6-12 2-8v-1Zm71-29c-2-1-7-3-13-3l-8 1-1 1c0 5-2 9-4 13a1 1 0 0 0 1 1 44 44 0 0 1 16 13 1 1 0 0 0 1 0 107 107 0 0 1 8-25v-1Zm-27-23 5 13a1 1 0 0 0 1 1 44 44 0 0 1 20 1l1-1a107 107 0 0 1-8-25h-1c-2 0-7 1-12 5l-6 6Zm-17-14 12 8h1a44 44 0 0 1 17-11 1 1 0 0 0 0-2 107 107 0 0 1-21-15h-1c-2 2-5 5-7 11l-1 8v1Zm22 60-8-4-12 9-2-8a2 2 0 0 0-3 0l-16 28a2 2 0 0 0 1 2l32 7a2 2 0 0 0 1-3l-5-6a110 110 0 0 1 20-14v-1c0-2-3-6-8-10Z" opacity=".6"/>
  </g>
  <g opacity=".6" class="glow6">
    <path fill="url(#c)" d="M9 188a996 996 0 0 0-9 19 8 8 0 0 0 4 5l53 33a8 8 0 0 0 9-1l2-2 8-13c21-35 42-30 80-12l53 25a8 8 0 0 0 11-4l25-57a8 8 0 0 0 0-6 8 8 0 0 0-4-5l-53-25c-72-35-132-33-179 43Z" transform="matrix(.45 0 0 .45 497 1615)"/>
    <path fill="url(#d)" d="M247 58a609 609 0 0 0 9-19 8 8 0 0 0-4-5L199 1a8 8 0 0 0-11 3l-8 13c-21 35-42 31-80 12L47 5a8 8 0 0 0-9 1l-2 2-25 58a8 8 0 0 0 4 10l53 25c72 35 132 33 179-43Z" transform="matrix(.45 0 0 .45 497 1615)"/>
  </g>
  <g fill="#0091e2" opacity=".6" class="glow7">
    <path d="M3221 671s-4-3-13-3h-7c-2-11-11-17-11-17l-3-1-1 2c-2 3-4 6-4 9-2 7-1 13 2 18l-11 3h-107c-3 0-5 2-5 5 0 9 2 18 5 27s9 16 16 21c8 4 21 7 35 7l20-2a70 70 0 0 0 43-23c9-10 14-20 18-29h1c9 0 15-4 18-7l5-7 1-2-2-1Z"/>
    <path d="M3076 679h14l2-1v-13l-2-1h-14l-1 1v13l1 1Zm20 0h14l1-1v-13l-1-1h-14l-2 1v13l2 1m20 0h14l1-1v-13l-1-1h-14l-2 1v13l2 1Zm19 0h15l1-1v-13l-1-1h-15l-1 1v13l1 1Zm-39-18h14l1-1v-13l-1-1h-14l-2 1v13l2 1m20 0h14l1-1v-13l-1-1h-14l-2 1v13l2 1m19 0h15l1-1v-13l-1-1h-15l-1 1v13l1 1m0-18h15l1-1v-13l-1-1h-15l-1 1v13l1 1m20 36h14l2-1v-13l-2-1h-14l-1 1v13l1 1"/>
  </g>
  <g opacity=".6" class="glow8">
    <path fill="#326de6" d="M4809 594c-3 0-6-1-8-4l-29-36c-1-2-2-5-1-8l10-45 5-7 42-20 4-1 5 1 41 20c3 2 5 4 6 7l10 45c1 3 0 6-2 8l-29 36c-2 2-4 4-7 4h-47Z"/>
    <path fill="#fff" d="m4832 475 4 1 41 20c3 1 4 3 5 5l10 45c1 3 0 5-1 7l-29 36c-2 2-4 3-7 3h-46c-2 0-5-1-6-3l-29-36c-2-2-2-4-2-7l11-45c0-2 2-4 4-5l42-20 3-1Zm0-3-5 1-42 20c-3 1-5 4-6 8l-10 45c-1 3 0 7 2 10l29 36c2 2 5 4 9 4h46c4 0 7-2 9-4l29-36c3-3 4-7 3-10l-11-45c0-4-3-7-6-8l-42-20-5-1Z"/>
    <path fill="#fff" d="M4874 543h-1l-1-1h-6v-1h-1l-1-1a33 33 0 0 0-5-22l1-1v-1l4-3h1l1-1 1-1v-3l-1-1h-2v1h-1l-1 1v1l-4 3h-2l-4-3c-5-4-11-6-17-7v-1l-1-1 1-4v-4c0-1-1-2-3-2h-1l-1 2v10l-5 1c-6 1-12 5-16 9h-2v-1c-2 0-3-1-4-3l-1-1-1-1h-4c-1 1 0 3 1 4v1h2l1 1 3 2 1 2h1l-1 1c-4 7-6 14-5 22h-1l-1 1-4 1h-3v1c-2 0-3 1-2 3l2 1h3l1-1 4-1h1l1 1 1-1a33 33 0 0 0 14 18v3l-2 4-1 1-1 1c-1 2 0 3 1 4h1l3-1v-2l1-1 1-4 1-1h1v-1a32 32 0 0 0 23 0l1 1 1 1 2 4v2h1v1l2 1h1l1-2v-2l-1-1v-1l-3-4v-1l1-1-1-1a32 32 0 0 0 14-18h3l4 1 1 1h3c1 0 2 0 3-2 0 0-1-2-3-2Zm-38-4-4 1-3-1-1-4 2-3h4l3 3-1 4Zm21-9 1 8-13-3-1-3v-1l10-9c2 3 3 5 3 8Zm-7-13-10 8h-3l-1-1v-14c5 1 10 3 14 7Zm-24-6 3-1-1 13-2 2h-1l-11-8 12-6Zm-16 11 10 9v3l-1 1-13 3c0-5 1-11 4-16Zm-2 23 13-3 2 2v1l-5 13c-4-3-8-8-10-13Zm30 16a27 27 0 0 1-14-1l6-11 3-1 1 1 6 11-2 1Zm16-11-8 8-5-13 1-2 1-1 14 3-3 5Z"/>
  </g>
  <g opacity=".6" class="glow9">
    <path fill="#599636" d="m7265 1567 4 8 4 4 10 11a98 98 0 0 1 18 53 75 75 0 0 1-29 62c-2 0-3-1-3-2l-2-6-1-8v-1l-1-121Z"/>
    <path fill="#6cac48" d="M7265 1567c0-1 0 0 0 0l-2 4-4 4c-8 7-14 15-19 24-6 12-9 25-10 39-1 5 1 23 3 28a83 83 0 0 0 29 41l1-1 1-4 2-13-1-122Z"/>
    <path fill="#c2bfbf" d="m7269 1711 2-6-2-2-1-3-2-11v-2l-1 3-1 12-2 5h1l2 14v2l1 3h3v-15Z"/>
  </g>
  <g opacity=".6" class="glow10">
    <path fill="#49d" d="m6275 923 40-16c4-6 8-11 13-15 4-2 10-1 21-15s15-25 20-25c8 0 14 17 23 44 7 20 14 40 23 60-10-9-18-19-27-18-9 0-18 10-29 23-8 11-19 18-23 18 0 0-11-32-21-37-4-2-8-1-12 1l-28-20Z"/>
    <path fill="url(#e)" d="m20 4-3 4c-2 3-4 3-4 3l-3 3 3 3 6-11 1-2Z" transform="matrix(5 0 0 5 6265 835)"/>
    <path fill="url(#f)" d="M21 3c-2 0-4 12-12 18 2 0 4 5 5 8 4-1 7-9 11-9l5 4c-4-9-6-21-9-21Z" transform="matrix(5 0 0 5 6265 835)"/>
  </g>
  <g opacity=".6" class="glow1">
    <path fill="#3b8739" d="M5677 559v-29l-26-15-25 15v29l25 15 26-15Z"/>
    <path fill="#333" d="m5776 555 17 9-17 10-25-15v-29l25-15 16 9 3 20-10 6v-11l-9-5-8 5v11l8 5Z"/>
    <path fill="#66a060" d="M5781 547v-5l-5-3-5 3v5l5 3 5-3Z"/>
    <path fill="#333" d="M5614 530v39l-17-10v-20l-8-5-9 5v20l-9 5a114 114 0 0 1 2-39l16-10 25 15Z"/>
    <path fill="#6da75d" d="m5651 515 26 44-26 15-25-44 25-15Z"/>
    <path fill="#55a344" d="m5626 559 9-14-9-15v29Z"/>
    <path fill="#639d57" d="m5668 545 9-15-26-15 17 30Z"/>
    <path fill="#333" d="M5722 481v39l-8-5-26 15v29l26 15 25-15v-69l-17-9Zm0 68-8 5-9-5v-9l9-5 8 5v9Z"/>
    <g fill="#66a060" class="glow6">
      <path d="M5694 595s-1-4-5-4-8 1-8 3 9 3 12 4c4 1 7 3 5 8s-6 5-13 5-9-6-9-8h4s0 3 5 4 9 1 9-3c1-5-15-2-16-7-1-4-1-9 7-10s13 3 13 8h-4Z"/>
      <path d="m5655 614 9 5c5 3 10-1 10-6v-25h-4v24c0 3-3 5-5 3l-6-3v-26l22-13 23 13v26l-23 13-6-4-4 2 10 6 26-15v-30l-26-15-26 15v30Z"/>
    </g>
  </g>
  <g opacity=".6" class="glow2">
    <path d="M6941 1319c-1-2-3-4-5-4h-4l-7 1c6-10 11-22 13-32 5-18 2-26 0-29-8-10-19-15-32-15l-16 2h-9c-7-1-12 1-17 4l-12-3c-11-2-20-1-27 4-8 6-12 16-11 30a171 171 0 0 0 14 49c3 6 7 10 11 12 2 0 7 1 11-3l3 2 4 2c6 2 11 1 16-1a291 291 0 0 1 0 6 55 55 0 0 0 2 16l5 8c3 3 6 4 10 4l4-1c5-1 11-2 15-8s5-14 6-27v-1h1c5 0 11-1 15-3 3-1 12-6 10-13"/>
    <path fill="#336791" d="M6933 1320c-15 3-16-2-16-2 15-23 22-53 16-60-15-19-42-10-42-10l-10-1c-7 0-12 2-16 5 0 0-48-20-46 25 1 9 14 71 30 52 5-7 11-12 11-12l9 2 1 2c-4 5-3 6-11 7-8 2-4 5-1 6 4 1 13 2 19-6v1l2 14 1 14c1 4 3 11 13 9 9-2 13-7 14-15l2-10v-3c1-8 1-10 6-9h1c4 0 10 0 13-2 6-3 10-8 4-7"/>
    <path fill="#fff" d="M6868 1281h-3l-1 1 1 1 2 2h1l3-2-3-2m44 0-3-1c-2 0-3 1-3 2 0 0 1 2 3 2l2-2 1-1"/>
    <path fill="#fff" d="M6938 1320c-1-2-3-2-6-2-9 2-12 1-13 0 7-11 13-23 16-35l2-16-2-10c-7-9-17-13-29-13l-16 2-9-1c-7 0-12 1-16 4l-13-3c-11-2-19 0-25 4-7 5-10 14-10 26 1 5 3 18 7 30 5 17 10 26 16 28h2c3 0 5-1 8-4l10-11 7 2-1 2c-2 2-2 2-8 3-1 1-6 2-6 5s5 4 6 4l6 1c4 0 8-1 12-4-1 11 0 23 1 26s4 10 13 10h4c10-2 14-6 15-15l3-23 5 1 12-2c4-2 10-6 9-9Zm-22-42-1 5-1 7 1 6c0 5 1 10-1 15l-1-2-2-4c-3-5-11-19-7-24 1-2 4-4 12-3Zm-9-31c10 1 19 5 25 12 4 6-1 33-15 56l-1-1c4-6 3-12 2-18v-6l1-6a36 36 0 0 0 0-8c0-3-3-10-9-17-3-4-8-8-14-11l11-1Zm-60 81c-3 3-5 3-6 3-4-2-9-11-14-26l-6-29c0-11 2-19 8-23 10-7 26-3 32-1-10 11-10 29-10 30v17a19 19 0 0 0 6 18l-10 11Zm11-15c-3-4-4-8-4-13l1-16v-1c1-2 8-5 13-4 3 0 4 2 5 5 3 14 0 20-2 24l-1 3-1 1-1 5c-4 0-7-1-10-4Zm1 19-3-1 3-1c7-1 8-2 10-5l2-3h3l1 2v3c-4 6-11 6-16 5Zm35 32c-8 2-11-2-13-7a146 146 0 0 1-2-34l-4-5h-4l2-5v-1l1-2c2-5 5-12 2-27-1-6-5-9-11-8a27 27 0 0 0-10 3c0-5 2-16 9-23 4-4 10-6 16-6 14 0 23 7 28 13l7 12c-7 0-11 1-14 5-5 7 3 21 7 28l1 3 4 6 1 2c-2 0-5 2-5 9l-3 25c-2 8-4 11-12 12Zm34-39-9 2-6-1c-1-4 1-4 3-5h1c3 2 8 3 16 1l-5 3Z"/>
  </g>
  <g opacity=".6" class="glow3">
    <path fill="url(#g)" d="M127 0C62 0 66 28 66 28v29h62v9H42S0 61 0 127c0 65 36 63 36 63h22v-30s-1-37 36-37h61s34 1 34-33V34s6-34-62-34ZM93 20a11 11 0 1 1 0 22 11 11 0 0 1 0-22Z" transform="matrix(.45 0 0 .45 790 909)"/>
    <path fill="url(#h)" d="M129 254c65 0 61-28 61-28l-1-29h-61v-9h86s42 5 42-61c0-65-37-63-37-63h-21v31s1 36-36 36h-61s-35-1-35 33v56s-5 34 63 34Zm34-19a11 11 0 1 1 0-23 11 11 0 0 1 0 23Z" transform="matrix(.45 0 0 .45 790 909)"/>
  </g>
  <g opacity=".6" class="glow4">
    <path fill="#ff6c37" d="M7273 717a54 54 0 1 0-86 67 54 54 0 0 0 86-67Z"/>
    <path fill="#fff" d="m7248 731-23 23-6-7c22-23 24-20 29-16Z"/>
    <path fill="#ff6c37" d="M7225 754h-1l-6-6v-2c22-22 25-21 31-16v1l-23 23h-1Zm-5-7 5 5 22-21c-2-2-5-3-7-1-4 1-10 7-20 17Z"/>
    <path fill="#fff" d="m7232 760-7-6 23-23c6 6-3 16-16 29Z"/>
    <path fill="#ff6c37" d="M7232 761h-1l-6-7v-1l23-23h1l2 6c0 6-7 13-19 25Zm-5-7 5 5c9-9 17-18 17-24l-1-3-21 22Z"/>
    <path fill="#fff" d="m7219 747 4 5-9 2a1 1 0 0 1-1-1l5-6h1Z"/>
    <path fill="#ff6c37" d="m7213 755-1-1v-2l6-5h1l5 4v1l-1 1-9 2h-1Zm6-7-6 5 9-2-3-3Zm0 0"/>
    <path fill="#fff" d="M7260 718a9 9 0 1 0-1 14l-7-6 8-8Z"/>
    <path fill="#ff6c37" d="M7254 734a10 10 0 0 1-7-17c4-3 10-3 14 0v2l-7 7 5 5v1l-5 2Zm0-18a8 8 0 0 0-6 14c3 2 6 3 9 1l-5-5a1 1 0 0 1 0-1l7-7-5-2Z"/>
    <path fill="#fff" d="m7260 718-7 8 6 6 1-1c4-4 4-10 0-13Z"/>
    <path fill="#ff6c37" d="m7259 733-1-1-6-6a1 1 0 0 1 0-1l8-8a1 1 0 0 1 1 0c2 2 3 5 3 7l-3 7-2 1v1Zm-5-7 5 5 1-1 2-6-2-5-6 7Z"/>
    <path fill="#fff" d="M7249 732c-1-2-3-2-5 0l-20 20 3 3 22-19a3 3 0 0 0 0-4Z"/>
    <path fill="#ff6c37" d="m7227 756-4-3v-2l21-20a4 4 0 1 1 5 6l-21 19h-1Zm-2-4 2 2 21-18 1-2-1-2h-3l-20 20Z"/>
    <path fill="#fff" d="M7208 775v1l1 4-1 1h-1l-6-6 19-20h7l4 5c-7 6-15 11-23 15Z"/>
    <path fill="#ff6c37" d="m7208 782-2-1-6-5a1 1 0 0 1 0-2l20-19h7l5 4v2c-8 6-15 11-24 15l1 3a2 2 0 0 1-2 3h1Zm-6-7 5 5h1l-1-4v-1c9-4 16-9 23-15l-4-4h-6l-18 19Zm7 1"/>
    <path fill="#fff" d="m7196 780 5-5 7 7-11-1a1 1 0 0 1-1-1Z"/>
    <path fill="#ff6c37" d="m7208 783-11-1-2-1 1-2 4-4h1l7 6v2Zm-11-3 9 1-5-5-4 4Z"/>
    <path fill="#fff" d="m7227 756-9 1 6-5 3 4Z"/>
    <path fill="#ff6c37" d="M7218 758v-1l5-5h1l4 3v1l-1 1-9 1Zm6-5-3 3 5-1-2-2Z"/>
    <path fill="#fff" d="m7227 756-6 1a1 1 0 0 1-1-2l4-3 3 4Z"/>
    <path fill="#ff6c37" d="m7221 758-2-1 1-2 3-3h1l4 3a1 1 0 0 1 0 2l-7 1Zm0-2 5-1-2-2-3 3Zm39-33h-1v4l1-1v-3Z"/>
  </g>
  <g fill="#61dafb" opacity=".6" transform="matrix(.3 0 0 .3 6547 391)" class="glow5">
    <path d="M666 297c0-33-40-64-103-83 15-64 8-114-20-130-7-4-14-6-22-6v22c4 0 8 1 11 3 14 8 19 37 15 76l-5 29c-20-5-41-8-64-11-13-18-27-35-41-50 32-30 63-47 84-47V78c-28 0-64 20-100 54-37-34-73-54-100-54v23c21 0 51 16 84 46-14 15-28 32-41 50-23 3-44 6-64 11l-5-29c-5-38 1-68 14-76l12-2V78c-9 1-16 2-23 6-28 16-34 67-20 130-62 19-102 50-102 82 0 33 40 64 103 83-15 63-8 114 20 130 6 4 14 6 22 6 28 0 64-20 100-54 37 34 73 53 100 53 9 1 16-1 23-5 28-16 34-67 20-130 62-19 102-50 102-83Zm-130-67-13 39a473 473 0 0 0-28-47l41 8Zm-46 106c-7 14-15 27-24 39a520 520 0 0 1-90 0 551 551 0 0 1-45-78 521 521 0 0 1 45-78 520 520 0 0 1 90 0 551 551 0 0 1 45 77c-6 14-13 27-21 40Zm33-13c5 14 10 27 13 40l-41 8a552 552 0 0 0 28-48ZM421 430l-28-32a619 619 0 0 0 56 0c-9 12-19 22-28 32Zm-74-59-41-8c3-13 8-26 13-39a473 473 0 0 0 28 47Zm74-208 27 32a619 619 0 0 0-55 0c9-12 18-22 28-32Zm-74 59a552 552 0 0 0-28 48c-5-14-10-27-13-40l41-8Zm-91 125c-35-15-58-35-58-50s23-36 58-51l28-10c6 19 13 40 22 61-9 20-16 41-22 60l-28-10Zm54 143c-14-8-19-37-15-76l5-29c20 5 41 8 64 11 13 18 27 35 41 50-32 30-63 47-84 47-4 0-8-1-11-3Zm237-76c5 38-1 68-14 76l-12 2c-21 0-51-16-84-46 14-15 28-32 41-50 23-3 44-6 64-11l5 29Zm39-67-28 10c-6-19-13-40-22-61 9-20 16-41 22-60l28 10c35 15 58 35 58 51 0 15-23 35-58 50Z"/>
    <circle r="45.7" transform="translate(421 297)"/>
  </g>
  <g opacity=".6" class="glow4">
    <path fill="#77bc1f" d="m5564 1751-8 15a77 77 0 1 0-108 110l3 3a77 77 0 0 0 127-54c2-19-4-44-14-74Zm-105 126a7 7 0 1 1-10-9 7 7 0 0 1 10 9Zm105-23c-19 25-60 16-86 18l-9 1 4-2c18-6 27-8 38-13 21-11 41-34 46-58-8 23-32 43-54 51-15 6-43 11-43 11l-1-1c-18-9-19-49 15-62 15-5 29-2 45-6 17-4 36-17 44-34 9 27 20 69 1 95Z" opacity=".6"/>
  </g>
  <defs>
    <style>
    .glow1 {
      filter: drop-shadow(0 0 10px yellow);
      animation: glow1-animation 2s infinite alternate;
    }
    @keyframes glow1-animation {
      0% {
        filter: drop-shadow(0 0 5px yellow);
      }
      100% {
        filter: drop-shadow(0 0 20px yellow);
      }
    }

    .glow2 {
      filter: drop-shadow(0 0 15px red);
      animation: glow2-animation 1.5s infinite alternate;
    }
    @keyframes glow2-animation {
      0% {
        filter: drop-shadow(0 0 5px red);
      }
      100% {
        filter: drop-shadow(0 0 30px red);
      }
    }

    .glow3 {
      filter: drop-shadow(0 0 12px blue);
      animation: glow3-animation 3s infinite ease-in-out;
    }
    @keyframes glow3-animation {
      0%, 100% {
        opacity: 1;
        filter: drop-shadow(0 0 5px blue);
      }
      50% {
        opacity: 0.5;
        filter: drop-shadow(0 0 25px blue);
      }
    }

    .glow4 {
      filter: drop-shadow(0 0 8px green);
      animation: glow4-animation 1s infinite alternate;
    }
    @keyframes glow4-animation {
      0% {
        filter: drop-shadow(0 0 3px green);
      }
      100% {
        filter: drop-shadow(0 0 20px green);
      }
    }

    .glow5 {
      filter: drop-shadow(0 0 10px magenta);
      animation: glow5-animation 2s infinite step-end;
    }
    @keyframes glow5-animation {
      0% {
        filter: drop-shadow(0 0 5px magenta);
      }
      50% {
        filter: drop-shadow(0 0 15px magenta);
      }
      100% {
        filter: drop-shadow(0 0 25px magenta);
      }
    }

    .glow6 {
      filter: drop-shadow(0 0 8px cyan);
      animation: glow6-animation 1.2s infinite alternate;
    }
    @keyframes glow6-animation {
      0% {
        filter: drop-shadow(0 0 4px cyan);
      }
      100% {
        filter: drop-shadow(0 0 18px cyan);
      }
    }

    .glow7 {
      filter: drop-shadow(0 0 7px pink);
      animation: glow7-animation 2s infinite ease-in-out;
    }
    @keyframes glow7-animation {
      0%, 100% {
        filter: drop-shadow(0 0 5px pink);
      }
      50% {
        filter: drop-shadow(0 0 20px pink);
      }
    }

    .glow8 {
      filter: drop-shadow(0 0 10px orange);
      animation: glow8-animation 0.5s infinite alternate;
    }
    @keyframes glow8-animation {
      0% {
        filter: drop-shadow(0 0 5px orange);
      }
      100% {
        filter: drop-shadow(0 0 15px orange);
      }
    }

    .glow9 {
      filter: drop-shadow(0 0 10px violet);
      animation: glow9-animation 3s infinite ease-in-out;
    }
    @keyframes glow9-animation {
      0%, 100% {
        opacity: 1;
        filter: drop-shadow(0 0 5px violet);
      }
      50% {
        opacity: 0.5;
        filter: drop-shadow(0 0 25px violet);
      }
    }

    .glow10 {
      filter: drop-shadow(0 0 20px white);
    }
    </style>
  </defs>
</svg>
