<svg xmlns="http://www.w3.org/2000/svg" viewBox="0 0 48 48" width="480" height="480">
  <path fill="#38b47b" d="M42.98 19.77c-.28-1.22-.84-2.36-1.39-3.49-.65-1.34-1.02-2.62-1.67-3.97-.53-1.08-1.07-2.18-1.82-3.12-2.48-3.12-6.71-4.23-10.62-4.94-2.34-.42-4.72-.85-7.08-.54-1.52.19-2.98.69-4.4 1.26-2.28.91-4.24 2.2-5.98 3.93-5.68 5.3-7.91 13.82-5.69 21.26.4 1.31.92 2.59 1.48 3.84.49 1.09 1.02 2.18 1.69 3.17 1.93 2.84 5.12 4.3 8.27 5.66 1.22.52 2.47.98 3.77 1.27 3.86.88 7.98.26 11.62-1.31 5.35-2.31 9.91-6.37 11.49-11.98.65-2.31.52-4.8.58-7.2.03-1.28.04-2.59-.25-3.84zm-7.79 14.89c-4.39 4.44-11.44 6.03-17.31 3.89S8 30.91 7.5 24.69c-.36-4.45.88-9.12 4.43-11.81 2.94-2.32 6.26-4.31 9.97-4.74 2.25-.26 4.52.05 6.75.37 2.53.35 5.28.82 6.96 2.74.71.82 1.16 1.84 1.62 2.82.56 1.17 1.16 2.33 1.62 3.55 2.21 5.84.73 12.59-3.66 17.04z"/>
  <path fill="#010101" d="M23.172 44.996c-1.284 0-2.541-.135-3.745-.407-1.186-.268-2.446-.693-3.854-1.301-3.497-1.506-6.55-2.984-8.486-5.839-.715-1.055-1.255-2.184-1.73-3.246-.689-1.535-1.152-2.739-1.5-3.904-2.281-7.632.056-16.375 5.815-21.76a18.11 18.11 0 0 1 6.146-4.036c1.211-.486 2.818-1.073 4.521-1.294 2.455-.315 4.883.123 7.231.549 3.959.719 8.353 1.889 10.923 5.117.791.995 1.342 2.126 1.875 3.22.338.691.602 1.369.856 2.024.246.635.501 1.29.818 1.942.554 1.134 1.127 2.308 1.426 3.596.303 1.315.297 2.682.265 3.969-.013.478-.017.959-.021 1.44-.018 1.948-.036 3.964-.575 5.876-1.497 5.305-5.679 9.674-11.774 12.303-2.687 1.158-5.498 1.751-8.191 1.751zM22.08 4.102c-.54 0-1.078.03-1.614.1-1.591.206-3.121.765-4.276 1.229a17.133 17.133 0 0 0-5.819 3.823l-.011.011c-5.493 5.131-7.722 13.469-5.545 20.748.334 1.121.782 2.287 1.453 3.781.458 1.021.974 2.104 1.646 3.095 1.784 2.63 4.703 4.038 8.054 5.481 1.352.582 2.556.989 3.68 1.244 3.526.797 7.545.34 11.316-1.287 5.814-2.508 9.795-6.647 11.208-11.656.503-1.784.521-3.73.538-5.613.005-.488.009-.975.021-1.457.032-1.273.038-2.517-.239-3.718-.272-1.178-.82-2.299-1.35-3.383-.336-.69-.599-1.365-.853-2.019-.247-.636-.503-1.294-.822-1.949-.51-1.045-1.036-2.125-1.76-3.034-2.363-2.97-6.542-4.071-10.317-4.756-1.744-.316-3.534-.64-5.31-.64zM10.018 8.899h.01-.01z"/>
  <path fill="#38b47b" d="M21.5 26.5c2.44-3.086 4.285-5.329 6.725-8.415 1.169-1.479 2.74-2.491 4.275-3.585-.38 1.437-2.127 4.797-3 6-1.471 2.027-1.802 2.801-3 5-1.804 3.311-3.122 5.341-4.813 8.711-.984-2.506-3.579-4.717-5.158-6.898-1.377-1.903-4.085-5.852-4.029-5.813 2.723 1.922 6.419 2.891 9 5z"/>
  <path fill="#010101" d="m21.687 34.711-.022-.001a.5.5 0 0 1-.443-.316c-.61-1.557-1.912-3.034-3.171-4.464-.702-.796-1.365-1.549-1.926-2.323-4.379-6.054-4.318-6.115-3.98-6.458a.504.504 0 0 1 .645-.057c1.213.855 2.672 1.539 4.083 2.2 1.564.733 3.179 1.489 4.545 2.509a586.64 586.64 0 0 1 3.057-3.821c1.07-1.332 2.141-2.663 3.359-4.205 1.068-1.351 2.46-2.33 3.806-3.277l.572-.404a.498.498 0 0 1 .773.535c-.412 1.56-2.222 4.984-3.079 6.166-1.187 1.636-1.614 2.433-2.391 3.88l-.574 1.065a171.079 171.079 0 0 1-1.933 3.433c-.948 1.651-1.844 3.211-2.873 5.264a.508.508 0 0 1-.448.274zm-7.505-11.617a233.806 233.806 0 0 0 2.753 3.927c.532.735 1.18 1.471 1.865 2.248 1.069 1.214 2.167 2.461 2.904 3.808.853-1.645 1.625-2.99 2.436-4.402.601-1.047 1.225-2.134 1.921-3.413l.572-1.06c.797-1.486 1.236-2.305 2.463-3.995.634-.873 1.693-2.832 2.365-4.358-1.063.765-2.051 1.543-2.844 2.548-1.221 1.544-2.293 2.877-3.365 4.21-1.07 1.332-2.141 2.663-3.359 4.205a.506.506 0 0 1-.339.187.483.483 0 0 1-.37-.11c-1.35-1.103-3.071-1.909-4.736-2.689a58.425 58.425 0 0 1-2.266-1.106z"/>
  <path fill="#010101" d="M23.28 39.979c-1.901 0-3.795-.313-5.571-.96-5.982-2.18-10.185-7.789-10.707-14.289-.424-5.234 1.262-9.699 4.626-12.249 3.7-2.92 6.948-4.459 10.215-4.839 2.37-.273 4.766.069 6.879.372 2.83.393 5.518.91 7.265 2.906.702.811 1.153 1.774 1.589 2.707l.461.96c.447.92.91 1.87 1.281 2.855 2.283 6.034.804 12.931-3.771 17.568h-.001c-3.167 3.205-7.741 4.969-12.266 4.969zm.387-31.436c-.571 0-1.143.028-1.709.094-3.074.356-6.163 1.83-9.719 4.636-3.094 2.345-4.637 6.489-4.241 11.378.491 6.111 4.438 11.383 10.053 13.43 5.647 2.058 12.549.51 16.783-3.771 4.302-4.359 5.693-10.841 3.548-16.512-.355-.942-.808-1.872-1.245-2.771l-.467-.974c-.407-.87-.828-1.771-1.438-2.475-1.519-1.734-4.013-2.206-6.65-2.572-1.536-.221-3.225-.463-4.915-.463zM35.19 34.66h.01-.01z"/>
</svg>
