<svg viewBox="0 0 20 20" xmlns="http://www.w3.org/2000/svg" fill="#ebf0f3">
  <path d="M10-0C4.48-0-0 4.48-0 10s4.48 10 10 10 10-4.48 10-10S15.52-0 10-0zM7.55 14.14H5.53V7.63H7.55v6.52zm-1.03-7.32c-.64 0-1.05-.45-1.05-1.01 0-.57.43-1.01 1.08-1.01s1.05.44 1.07 1.01c0 .56-.41 1.01-1.09 1.01zm8.42 7.32h-2.03v-3.61c0-.84-.29-1.41-1.03-1.41-.56 0-.89.39-1.04.76-.05.13-.07.32-.07.51v3.76H8.76v-4.44c0-.81-.03-1.49-.05-2.08h1.76l.09.91h.04c.27-.43.92-1.05 2.01-1.05 1.33 0 2.33.89 2.33 2.81v3.85z"/>
</svg>
