<svg id="eRtkFPKvALD1" xmlns="http://www.w3.org/2000/svg" xmlns:xlink="http://www.w3.org/1999/xlink" viewBox="0 0 331 245.014245" shape-rendering="geometricPrecision" text-rendering="geometricPrecision" project-id="853a2319b5df40dbb8b147caf978ba81" export-id="403fd760fd2f41f6b35921f353eae340" cached="true"><defs><linearGradient id="eRtkFPKvALD4-fill" x1="0.30805" y1="-0.102858" x2="0.933013" y2="0.75" spreadMethod="pad" gradientUnits="objectBoundingBox" gradientTransform="translate(0 0)"><stop id="eRtkFPKvALD4-fill-0" offset="32%" stop-color="#222875"/><stop id="eRtkFPKvALD4-fill-1" offset="81%" stop-color="#a3299e"/></linearGradient></defs><path d="M-0.162992,0L331,0l-.000008,245.014245-331.162984-.000085v-245.01416Z" fill="#fff" stroke="#3f5787" stroke-width="0.662"/><g transform="matrix(1.00552 0 0 1.231371-39.12287-25.817272)"><path d="M38.746,120.228v99.715h164.673h164.672v-99.715-99.715h-164.672-164.673v99.715m319.089-.554v90.013h-154.416-154.416v-90.036-90.036l154.416.023l154.416.023v90.013M53.561,119.65v84.322l149.288.293l149.288.293v-84.615-84.615h-149.288-149.288v84.322M91.168,85.47v27.351h19.659h19.658l18.803-22.498C159.63,77.95,170.08,65.642,172.51,62.973l4.418-4.853q16.804.312,16.804.694c0,.382-11.303,14.243-25.118,30.803-15.888,19.046-24.806,30.619-24.269,31.499.466.765,11.408,13.955,24.316,29.311s23.859,28.562,24.337,29.345c.666,1.093-1.225,1.425-8.115,1.425h-8.984l-22.466-26.781-22.467-26.781h-19.899-19.899v26.781v26.781h-6.838-6.837v-61.539-61.538h6.837h6.838v27.35m135.613,0v27.351l19.658-.071l19.658-.071l22.71-27.28l22.71-27.279q16.688.477,16.688,1.164c0,.64-11.203,14.59-24.896,31l-24.897,29.835l22.902,27.23c12.597,14.976,24.094,28.719,25.549,30.539l2.647,3.309h-9.167-9.167L288.66,154.416l-22.516-26.781h-19.682-19.681v26.781v26.781h-7.408-7.407v-60.779c0-33.428.342-61.121.76-61.539q.417-.417,14.055-.759v27.35" fill="url(#eRtkFPKvALD4-fill)" fill-rule="evenodd"/></g></svg>
